<svg width="563" height="549" viewBox="0 0 563 549" fill="none" xmlns="http://www.w3.org/2000/svg">
<g filter="url(#filter0_d_2001_409)">
<mask id="mask0_2001_409" style="mask-type:alpha" maskUnits="userSpaceOnUse" x="70" y="48" width="438" height="435">
<path d="M195.469 138.71C194.896 134.064 196.851 129.467 200.594 126.657L300.889 51.3621C308.713 45.4889 319.979 49.9755 321.623 59.6191L352.382 240.058C353.222 244.986 351.178 249.962 347.116 252.876L238.63 330.704C230.567 336.489 219.252 331.532 218.037 321.684L195.469 138.71Z" fill="url(#paint0_linear_2001_409)"/>
<path d="M386.028 154.242C390.269 152.261 395.246 152.7 399.075 155.392L501.678 227.511C509.681 233.137 508.895 245.238 500.232 249.781L338.129 334.794C333.702 337.115 328.338 336.709 324.311 333.746L216.768 254.62C208.775 248.739 209.993 236.446 218.984 232.248L386.028 154.242Z" fill="url(#paint1_linear_2001_409)"/>
<path d="M430.141 340.274C433.336 343.696 434.456 348.565 433.08 353.039L396.196 472.905C393.319 482.255 381.568 485.247 374.569 478.412L243.625 350.513C240.049 347.02 238.778 341.793 240.351 337.048L282.372 210.317C285.495 200.898 297.562 198.257 304.334 205.511L430.141 340.274Z" fill="url(#paint2_linear_2001_409)"/>
<path d="M266.847 439.716C264.579 443.812 260.296 446.382 255.615 446.455L130.218 448.418C120.436 448.571 113.959 438.319 118.297 429.551L199.472 265.493C201.689 261.012 206.268 258.188 211.267 258.218L344.78 259.021C354.703 259.08 360.944 269.741 356.137 278.423L266.847 439.716Z" fill="url(#paint3_linear_2001_409)"/>
<path d="M121.811 315.142C117.216 314.252 113.447 310.972 111.931 306.543L71.3151 187.889C68.1469 178.634 75.8952 169.306 85.5748 170.722L266.688 197.227C271.634 197.951 275.735 201.433 277.251 206.196L317.746 333.423C320.756 342.879 312.545 352.108 302.803 350.22L121.811 315.142Z" fill="url(#paint4_linear_2001_409)"/>
</mask>
<g mask="url(#mask0_2001_409)">
<rect x="38.6604" y="82.1943" width="475.679" height="462.466" transform="rotate(-8.38521 38.6604 82.1943)" fill="white"/>
</g>
</g>
<g filter="url(#filter1_d_2001_409)">
<g filter="url(#filter2_d_2001_409)" style="mix-blend-mode:hard-light">
<path d="M195.469 138.71C194.896 134.064 196.851 129.467 200.595 126.656L300.89 51.3619C308.713 45.4886 319.979 49.9752 321.623 59.6188L352.382 240.058C353.222 244.986 351.178 249.962 347.116 252.876L238.63 330.704C230.567 336.489 219.252 331.532 218.038 321.683L195.469 138.71Z" fill="url(#paint5_linear_2001_409)"/>
</g>
<g filter="url(#filter3_d_2001_409)" style="mix-blend-mode:hard-light">
<path d="M386.028 154.242C390.27 152.261 395.246 152.7 399.076 155.391L501.678 227.511C509.682 233.136 508.896 245.237 500.232 249.781L338.129 334.793C333.702 337.115 328.338 336.708 324.312 333.746L216.769 254.62C208.776 248.739 209.993 236.446 218.984 232.247L386.028 154.242Z" fill="url(#paint6_linear_2001_409)"/>
</g>
<g filter="url(#filter4_d_2001_409)" style="mix-blend-mode:hard-light">
<path d="M430.142 340.274C433.336 343.696 434.457 348.564 433.08 353.038L396.197 472.905C393.32 482.255 381.568 485.247 374.57 478.412L243.625 350.513C240.049 347.02 238.778 341.793 240.352 337.048L282.372 210.317C285.495 200.898 297.563 198.257 304.334 205.511L430.142 340.274Z" fill="url(#paint7_linear_2001_409)"/>
</g>
<g filter="url(#filter5_d_2001_409)" style="mix-blend-mode:hard-light">
<path d="M266.847 439.716C264.58 443.811 260.296 446.382 255.616 446.455L130.218 448.418C120.436 448.571 113.959 438.319 118.298 429.551L199.473 265.493C201.69 261.012 206.268 258.188 211.267 258.218L344.78 259.02C354.704 259.08 360.944 269.741 356.138 278.422L266.847 439.716Z" fill="url(#paint8_linear_2001_409)"/>
</g>
<g filter="url(#filter6_d_2001_409)" style="mix-blend-mode:hard-light">
<path d="M121.812 315.142C117.216 314.251 113.448 310.971 111.932 306.543L71.3155 187.889C68.1472 178.633 75.8956 169.305 85.5752 170.722L266.688 197.227C271.635 197.951 275.735 201.433 277.251 206.196L317.746 333.423C320.756 342.879 312.546 352.108 302.804 350.22L121.812 315.142Z" fill="url(#paint9_linear_2001_409)"/>
</g>
</g>
<mask id="mask1_2001_409" style="mask-type:alpha" maskUnits="userSpaceOnUse" x="70" y="48" width="438" height="435">
<path d="M195.469 138.71C194.896 134.064 196.851 129.467 200.594 126.657L300.889 51.3621C308.713 45.4889 319.979 49.9755 321.623 59.6191L352.382 240.058C353.222 244.986 351.178 249.962 347.116 252.876L238.63 330.704C230.567 336.489 219.252 331.532 218.037 321.684L195.469 138.71Z" fill="url(#paint10_linear_2001_409)"/>
<path d="M386.028 154.242C390.269 152.262 395.246 152.7 399.075 155.392L501.677 227.511C509.681 233.137 508.895 245.238 500.232 249.781L338.129 334.794C333.701 337.116 328.338 336.709 324.311 333.746L216.768 254.62C208.775 248.739 209.992 236.447 218.984 232.248L386.028 154.242Z" fill="url(#paint11_linear_2001_409)"/>
<path d="M430.141 340.275C433.336 343.697 434.456 348.565 433.08 353.039L396.196 472.906C393.319 482.256 381.568 485.248 374.569 478.412L243.625 350.513C240.049 347.02 238.778 341.794 240.351 337.048L282.372 210.318C285.495 200.899 297.562 198.258 304.334 205.512L430.141 340.275Z" fill="url(#paint12_linear_2001_409)"/>
<path d="M266.847 439.717C264.579 443.812 260.296 446.383 255.615 446.456L130.218 448.418C120.436 448.571 113.959 438.32 118.297 429.552L199.472 265.493C201.689 261.013 206.268 258.189 211.267 258.219L344.78 259.021C354.703 259.081 360.944 269.741 356.137 278.423L266.847 439.717Z" fill="url(#paint13_linear_2001_409)"/>
<path d="M121.811 315.142C117.216 314.252 113.447 310.972 111.931 306.543L71.3151 187.889C68.1469 178.634 75.8952 169.306 85.5748 170.722L266.688 197.228C271.634 197.951 275.735 201.433 277.251 206.197L317.746 333.423C320.756 342.879 312.545 352.109 302.803 350.221L121.811 315.142Z" fill="url(#paint14_linear_2001_409)"/>
</mask>
<g mask="url(#mask1_2001_409)">
<g style="mix-blend-mode:multiply" filter="url(#filter7_f_2001_409)">
<path opacity="0.42" d="M386.444 145.826L421.085 169.826L351.803 169.826L386.444 145.826Z" fill="url(#paint15_linear_2001_409)"/>
<path d="M389.194 198.826L427.082 172.576L351.305 172.576L389.194 198.826Z" fill="url(#paint16_linear_2001_409)"/>
<path d="M384.148 199.778L318.765 185.323L387.704 266.646L384.148 199.778Z" fill="url(#paint17_linear_2001_409)"/>
<path opacity="0.68" d="M330.5 249.499L316.572 187.303L386.065 268.155L330.5 249.499Z" fill="url(#paint18_linear_2001_409)"/>
<path d="M299.5 196.499L314.5 188.999L321.5 222.499L299.5 196.499Z" fill="url(#paint19_linear_2001_409)"/>
<path d="M485.944 212.826L432.444 172.826L391.292 200.826L485.944 212.826Z" fill="url(#paint20_linear_2001_409)"/>
<path d="M475.944 213.826L437.444 209.325L394.944 267.826L475.944 213.826Z" fill="url(#paint21_linear_2001_409)"/>
<path opacity="0.7" d="M398.444 268.326L543.444 245.326L481.944 213.826L398.444 268.326Z" fill="url(#paint22_linear_2001_409)"/>
<path d="M370 317.999L488 256.999L388 271.499L370 317.999Z" fill="url(#paint23_linear_2001_409)"/>
<path opacity="0.7" d="M390.944 267.826L433.944 209.326L387.944 202.326L390.944 267.826Z" fill="url(#paint24_linear_2001_409)"/>
<path opacity="0.7" d="M375 297.999L385.5 270.999L357.5 261.999L375 297.999Z" fill="url(#paint25_linear_2001_409)"/>
<path opacity="0.7" d="M347.125 172.499L382.358 197.076L321.625 184.499L347.125 172.499Z" fill="url(#paint26_linear_2001_409)"/>
</g>
<g style="mix-blend-mode:multiply" opacity="0.44" filter="url(#filter8_f_2001_409)">
<path opacity="0.42" d="M168.5 324.999L195.5 270.499L146.624 319.238L168.5 324.999Z" fill="url(#paint27_linear_2001_409)"/>
<path d="M207.5 251.999L198 182.499L164.5 177.499L207.5 251.999Z" fill="url(#paint28_linear_2001_409)"/>
<path d="M176.068 272.556L101.654 311.171L158.76 190.526L176.068 272.556Z" fill="url(#paint29_linear_2001_409)"/>
<path opacity="0.68" d="M81.6128 227.337L98.3612 309.484L156.288 189.231L81.6128 227.337Z" fill="url(#paint30_linear_2001_409)"/>
<path d="M50.0964 206.791L95.3084 308.103L79.1401 228.189L50.0964 206.791Z" fill="url(#paint31_linear_2001_409)"/>
<path d="M202 261.499L141.5 321.499L179 272.999L202 261.499Z" fill="url(#paint32_linear_2001_409)"/>
<path opacity="0.7" d="M159 177.499L207.5 256.499L179.836 268.248L159 177.499Z" fill="url(#paint33_linear_2001_409)"/>
<path d="M117.24 133.128L154.686 185.974L56.0563 190.296L117.24 133.128Z" fill="url(#paint34_linear_2001_409)"/>
<path opacity="0.52" d="M54.8887 193.199L155.171 187.788L80.4697 225.889L54.8887 193.199Z" fill="url(#paint35_linear_2001_409)"/>
<path opacity="0.7" d="M140.102 317.517L174.775 276.404L105.38 311.244L140.102 317.517Z" fill="url(#paint36_linear_2001_409)"/>
</g>
<g style="mix-blend-mode:multiply" opacity="0.62" filter="url(#filter9_f_2001_409)">
<path d="M140.444 370.825L248.922 449.825L99.9656 449.825L140.444 370.825Z" fill="url(#paint37_linear_2001_409)"/>
<path d="M258 452.499L276 428.999L291.5 394.999L179 392.999L258 452.499Z" fill="url(#paint38_linear_2001_409)"/>
<path opacity="0.67" d="M292.5 392.999L316.5 349.999L182 388.999L292.5 392.999Z" fill="url(#paint39_linear_2001_409)"/>
<path d="M177 392.499L172.5 361.499L168.5 327.499L141.5 367.999L177 392.499Z" fill="url(#paint40_linear_2001_409)"/>
<path opacity="0.9" d="M181 384.999L317 347.499L170.5 324.999L181 384.999Z" fill="url(#paint41_linear_2001_409)"/>
<path opacity="0.7" d="M189 290.999L217.5 329.999L171.5 323.499L189 290.999Z" fill="url(#paint42_linear_2001_409)"/>
</g>
<g style="mix-blend-mode:multiply" opacity="0.3" filter="url(#filter10_f_2001_409)">
<path d="M270.517 123.642L194.218 126.558L260.773 74.0849L270.517 123.642Z" fill="url(#paint43_linear_2001_409)"/>
<path d="M343.999 171.999L283 181.999L335.5 134.499L343.999 171.999Z" fill="url(#paint44_linear_2001_409)"/>
<path d="M189.22 128.562L189.456 145.403L194.508 166.054L245.478 127.317L189.22 128.562Z" fill="url(#paint45_linear_2001_409)"/>
<path opacity="0.67" d="M198.5 165.999L202 190.499L245.547 130.161L198.5 165.999Z" fill="url(#paint46_linear_2001_409)"/>
<path opacity="0.43" d="M280.5 183.498L280.5 201.498L340 174.999L280.5 183.498Z" fill="url(#paint47_linear_2001_409)"/>
<path d="M246.548 127.999L259.479 140.265L273.244 152.884L271.04 125.277L246.548 127.999Z" fill="url(#paint48_linear_2001_409)"/>
<path d="M217 188.499L270 194.499L278.492 203.499L278.492 182.228L217 188.499Z" fill="url(#paint49_linear_2001_409)"/>
<path opacity="0.34" d="M247.403 131.596L201.5 193.999L273.231 154.706L247.403 131.596Z" fill="url(#paint50_linear_2001_409)"/>
<path opacity="0.7" d="M278.918 180.299L220.5 186.499L275.5 156.499L278.918 180.299Z" fill="url(#paint51_linear_2001_409)"/>
<path opacity="0.7" d="M306 44.9985L272.5 122.999L263.853 74.7619L306 44.9985Z" fill="url(#paint52_linear_2001_409)"/>
<path opacity="0.7" d="M434.999 131.499L275.498 125.999L309.499 48.9821L328.498 48.9819L434.999 131.499Z" fill="url(#paint53_linear_2001_409)"/>
<path opacity="0.5" d="M281 179.999L274 127.999L337 130.499L281 179.999Z" fill="url(#paint54_linear_2001_409)"/>
</g>
<g style="mix-blend-mode:multiply" opacity="0.41" filter="url(#filter11_f_2001_409)">
<path d="M378.593 399.162L439.487 353.097L414.949 434.22L378.593 399.162Z" fill="url(#paint55_linear_2001_409)"/>
<path d="M290.66 401.571L334.954 358.455L319.094 427.455L290.66 401.571Z" fill="url(#paint56_linear_2001_409)"/>
<path d="M442.438 348.594L432.605 334.92L416.642 320.877L397.02 381.816L442.438 348.594Z" fill="url(#paint57_linear_2001_409)"/>
<path opacity="0.67" d="M413.401 323.208L396.507 305.121L395.336 379.524L413.401 323.208Z" fill="url(#paint58_linear_2001_409)"/>
<path opacity="0.43" d="M336.146 355.795L325.843 341.035L292.222 396.822L336.146 355.795Z" fill="url(#paint59_linear_2001_409)"/>
<path d="M395.753 381.869L378.129 379.213L359.619 376.745L377.228 398.121L395.753 381.869Z" fill="url(#paint60_linear_2001_409)"/>
<path d="M385.352 315.347L338.459 340.765L326.344 338.246L338.519 355.687L385.352 315.347Z" fill="url(#paint61_linear_2001_409)"/>
<path opacity="0.34" d="M392.993 379.409L394.914 301.965L358.586 375.243L392.993 379.409Z" fill="url(#paint62_linear_2001_409)"/>
<path opacity="0.7" d="M339.274 357.513L383.627 318.991L355.7 375.072L339.274 357.513Z" fill="url(#paint63_linear_2001_409)"/>
<path opacity="0.7" d="M394.513 483.958L377.335 400.824L412.036 435.428L394.513 483.958Z" fill="url(#paint64_linear_2001_409)"/>
<path opacity="0.7" d="M239.224 486.868L373.159 400.08L389.363 482.695L373.784 493.57L239.224 486.868Z" fill="url(#paint65_linear_2001_409)"/>
<path opacity="0.5" d="M337.739 358.951L373.243 397.583L320.154 431.594L337.739 358.951Z" fill="url(#paint66_linear_2001_409)"/>
</g>
<g opacity="0.27" filter="url(#filter12_ng_2001_409)" style="mix-blend-mode:overlay">
<rect x="89.7734" y="130.597" width="357.873" height="355.937" transform="rotate(-8.38521 89.7734 130.597)" fill="black"/>
</g>
</g>
<g filter="url(#filter13_d_2001_409)">
<g filter="url(#filter14_d_2001_409)" style="mix-blend-mode:hard-light">
<path d="M300.289 50.562C308.711 44.2398 320.838 49.0698 322.608 59.451L353.368 239.89C354.272 245.195 352.071 250.552 347.698 253.689L239.213 331.517C230.533 337.744 218.352 332.408 217.044 321.806L194.476 138.833C193.859 133.832 195.964 128.882 199.994 125.857L300.289 50.562Z" stroke="url(#paint67_linear_2001_409)" stroke-width="2" shape-rendering="crispEdges"/>
</g>
<g filter="url(#filter15_d_2001_409)" style="mix-blend-mode:hard-light">
<path d="M502.253 226.693C510.868 232.749 510.022 245.775 500.696 250.666L338.593 335.679C333.827 338.179 328.053 337.741 323.718 334.551L216.176 255.425C207.571 249.095 208.881 235.861 218.561 231.341L385.604 153.336C390.17 151.204 395.528 151.676 399.651 154.574L502.253 226.693Z" stroke="url(#paint68_linear_2001_409)" stroke-width="2" shape-rendering="crispEdges"/>
</g>
<g filter="url(#filter16_d_2001_409)" style="mix-blend-mode:hard-light">
<path d="M397.152 473.199C394.055 483.264 381.404 486.486 373.87 479.127L242.926 351.229C239.076 347.468 237.708 341.841 239.402 336.733L281.423 210.003C284.785 199.863 297.775 197.02 305.065 204.828L430.872 339.592C434.311 343.275 435.517 348.517 434.035 353.333L397.152 473.199Z" stroke="url(#paint69_linear_2001_409)" stroke-width="2" shape-rendering="crispEdges"/>
</g>
<g filter="url(#filter17_d_2001_409)" style="mix-blend-mode:hard-light">
<path d="M130.233 449.418C119.703 449.582 112.731 438.547 117.401 429.108L198.576 265.049C200.962 260.226 205.891 257.186 211.273 257.218L344.786 258.021C355.468 258.085 362.187 269.561 357.013 278.907L267.722 440.201C265.281 444.609 260.669 447.376 255.631 447.455L130.233 449.418Z" stroke="url(#paint70_linear_2001_409)" stroke-width="2" shape-rendering="crispEdges"/>
</g>
<g filter="url(#filter18_d_2001_409)" style="mix-blend-mode:hard-light">
<path d="M70.3686 188.213C66.9584 178.249 75.2996 168.208 85.7195 169.733L266.833 196.238C272.158 197.017 276.572 200.765 278.204 205.893L318.699 333.12C321.939 343.299 313.1 353.235 302.613 351.202L121.621 316.124C116.674 315.166 112.617 311.634 110.985 306.867L70.3686 188.213Z" stroke="url(#paint71_linear_2001_409)" stroke-width="2" shape-rendering="crispEdges"/>
</g>
</g>
<g filter="url(#filter19_d_2001_409)">
<path d="M280.5 279.087L265.645 259.281L280.5 212.242L280.5 279.087Z" fill="#EEEEEE" stroke="white"/>
<path d="M281.5 279.087L296.355 259.281L281.5 212.242L281.5 279.087Z" fill="white" stroke="white"/>
<path d="M282.273 279.648L296.519 259.401L345.846 258.992L282.273 279.648Z" fill="#EEEEEE" stroke="white"/>
<path d="M282.582 280.6L306.009 288.607L346.155 259.944L282.582 280.6Z" fill="white" stroke="white"/>
<path d="M282.287 281.508L305.946 288.8L321.577 335.587L282.287 281.508Z" fill="#EEEEEE" stroke="white"/>
<path d="M281.477 282.096L281.101 306.85L320.768 336.175L281.477 282.096Z" fill="white" stroke="white"/>
<path d="M280.523 282.096L280.899 306.85L241.232 336.175L280.523 282.096Z" fill="#EEEEEE" stroke="white"/>
<path d="M279.713 281.508L256.054 288.8L240.423 335.587L279.713 281.508Z" fill="white" stroke="white"/>
<path d="M279.418 280.6L255.991 288.607L215.845 259.944L279.418 280.6Z" fill="#EEEEEE" stroke="white"/>
<path d="M279.727 279.648L265.481 259.401L216.154 258.992L279.727 279.648Z" fill="white" stroke="white"/>
</g>
<defs>
<filter id="filter0_d_2001_409" x="61.7863" y="48.7314" width="454.255" height="451.025" filterUnits="userSpaceOnUse" color-interpolation-filters="sRGB">
<feFlood flood-opacity="0" result="BackgroundImageFix"/>
<feColorMatrix in="SourceAlpha" type="matrix" values="0 0 0 0 0 0 0 0 0 0 0 0 0 0 0 0 0 0 127 0" result="hardAlpha"/>
<feOffset dy="8.80888"/>
<feGaussianBlur stdDeviation="4.40444"/>
<feComposite in2="hardAlpha" operator="out"/>
<feColorMatrix type="matrix" values="0 0 0 0 0 0 0 0 0 0 0 0 0 0 0 0 0 0 0.25 0"/>
<feBlend mode="normal" in2="BackgroundImageFix" result="effect1_dropShadow_2001_409"/>
<feBlend mode="normal" in="SourceGraphic" in2="effect1_dropShadow_2001_409" result="shape"/>
</filter>
<filter id="filter1_d_2001_409" x="61.7868" y="48.7312" width="454.255" height="451.025" filterUnits="userSpaceOnUse" color-interpolation-filters="sRGB">
<feFlood flood-opacity="0" result="BackgroundImageFix"/>
<feColorMatrix in="SourceAlpha" type="matrix" values="0 0 0 0 0 0 0 0 0 0 0 0 0 0 0 0 0 0 127 0" result="hardAlpha"/>
<feOffset dy="8.80888"/>
<feGaussianBlur stdDeviation="4.40444"/>
<feComposite in2="hardAlpha" operator="out"/>
<feColorMatrix type="matrix" values="0 0 0 0 0 0 0 0 0 0 0 0 0 0 0 0 0 0 0.05 0"/>
<feBlend mode="normal" in2="BackgroundImageFix" result="effect1_dropShadow_2001_409"/>
<feBlend mode="normal" in="SourceGraphic" in2="effect1_dropShadow_2001_409" result="shape"/>
</filter>
<filter id="filter2_d_2001_409" x="186.562" y="48.7312" width="174.816" height="302.056" filterUnits="userSpaceOnUse" color-interpolation-filters="sRGB">
<feFlood flood-opacity="0" result="BackgroundImageFix"/>
<feColorMatrix in="SourceAlpha" type="matrix" values="0 0 0 0 0 0 0 0 0 0 0 0 0 0 0 0 0 0 127 0" result="hardAlpha"/>
<feOffset dy="8.80888"/>
<feGaussianBlur stdDeviation="4.40444"/>
<feComposite in2="hardAlpha" operator="out"/>
<feColorMatrix type="matrix" values="0 0 0 0 0 0 0 0 0 0 0 0 0 0 0 0 0 0 0.25 0"/>
<feBlend mode="normal" in2="BackgroundImageFix" result="effect1_dropShadow_2001_409"/>
<feBlend mode="normal" in="SourceGraphic" in2="effect1_dropShadow_2001_409" result="shape"/>
</filter>
<filter id="filter3_d_2001_409" x="202.634" y="153.014" width="313.409" height="200.893" filterUnits="userSpaceOnUse" color-interpolation-filters="sRGB">
<feFlood flood-opacity="0" result="BackgroundImageFix"/>
<feColorMatrix in="SourceAlpha" type="matrix" values="0 0 0 0 0 0 0 0 0 0 0 0 0 0 0 0 0 0 127 0" result="hardAlpha"/>
<feOffset dy="8.80888"/>
<feGaussianBlur stdDeviation="4.40444"/>
<feComposite in2="hardAlpha" operator="out"/>
<feColorMatrix type="matrix" values="0 0 0 0 0 0 0 0 0 0 0 0 0 0 0 0 0 0 0.25 0"/>
<feBlend mode="normal" in2="BackgroundImageFix" result="effect1_dropShadow_2001_409"/>
<feBlend mode="normal" in="SourceGraphic" in2="effect1_dropShadow_2001_409" result="shape"/>
</filter>
<filter id="filter4_d_2001_409" x="230.878" y="201.354" width="211.589" height="298.402" filterUnits="userSpaceOnUse" color-interpolation-filters="sRGB">
<feFlood flood-opacity="0" result="BackgroundImageFix"/>
<feColorMatrix in="SourceAlpha" type="matrix" values="0 0 0 0 0 0 0 0 0 0 0 0 0 0 0 0 0 0 127 0" result="hardAlpha"/>
<feOffset dy="8.80888"/>
<feGaussianBlur stdDeviation="4.40444"/>
<feComposite in2="hardAlpha" operator="out"/>
<feColorMatrix type="matrix" values="0 0 0 0 0 0 0 0 0 0 0 0 0 0 0 0 0 0 0.25 0"/>
<feBlend mode="normal" in2="BackgroundImageFix" result="effect1_dropShadow_2001_409"/>
<feBlend mode="normal" in="SourceGraphic" in2="effect1_dropShadow_2001_409" result="shape"/>
</filter>
<filter id="filter5_d_2001_409" x="108.116" y="258.218" width="258.485" height="207.819" filterUnits="userSpaceOnUse" color-interpolation-filters="sRGB">
<feFlood flood-opacity="0" result="BackgroundImageFix"/>
<feColorMatrix in="SourceAlpha" type="matrix" values="0 0 0 0 0 0 0 0 0 0 0 0 0 0 0 0 0 0 127 0" result="hardAlpha"/>
<feOffset dy="8.80888"/>
<feGaussianBlur stdDeviation="4.40444"/>
<feComposite in2="hardAlpha" operator="out"/>
<feColorMatrix type="matrix" values="0 0 0 0 0 0 0 0 0 0 0 0 0 0 0 0 0 0 0.25 0"/>
<feBlend mode="normal" in2="BackgroundImageFix" result="effect1_dropShadow_2001_409"/>
<feBlend mode="normal" in="SourceGraphic" in2="effect1_dropShadow_2001_409" result="shape"/>
</filter>
<filter id="filter6_d_2001_409" x="61.7868" y="170.579" width="265.4" height="197.507" filterUnits="userSpaceOnUse" color-interpolation-filters="sRGB">
<feFlood flood-opacity="0" result="BackgroundImageFix"/>
<feColorMatrix in="SourceAlpha" type="matrix" values="0 0 0 0 0 0 0 0 0 0 0 0 0 0 0 0 0 0 127 0" result="hardAlpha"/>
<feOffset dy="8.80888"/>
<feGaussianBlur stdDeviation="4.40444"/>
<feComposite in2="hardAlpha" operator="out"/>
<feColorMatrix type="matrix" values="0 0 0 0 0 0 0 0 0 0 0 0 0 0 0 0 0 0 0.25 0"/>
<feBlend mode="normal" in2="BackgroundImageFix" result="effect1_dropShadow_2001_409"/>
<feBlend mode="normal" in="SourceGraphic" in2="effect1_dropShadow_2001_409" result="shape"/>
</filter>
<filter id="filter7_f_2001_409" x="298.5" y="144.826" width="245.944" height="174.173" filterUnits="userSpaceOnUse" color-interpolation-filters="sRGB">
<feFlood flood-opacity="0" result="BackgroundImageFix"/>
<feBlend mode="normal" in="SourceGraphic" in2="BackgroundImageFix" result="shape"/>
<feGaussianBlur stdDeviation="0.5" result="effect1_foregroundBlur_2001_409"/>
</filter>
<filter id="filter8_f_2001_409" x="49.0964" y="132.127" width="159.404" height="193.872" filterUnits="userSpaceOnUse" color-interpolation-filters="sRGB">
<feFlood flood-opacity="0" result="BackgroundImageFix"/>
<feBlend mode="normal" in="SourceGraphic" in2="BackgroundImageFix" result="shape"/>
<feGaussianBlur stdDeviation="0.5" result="effect1_foregroundBlur_2001_409"/>
</filter>
<filter id="filter9_f_2001_409" x="98.9656" y="289.999" width="219.034" height="163.5" filterUnits="userSpaceOnUse" color-interpolation-filters="sRGB">
<feFlood flood-opacity="0" result="BackgroundImageFix"/>
<feBlend mode="normal" in="SourceGraphic" in2="BackgroundImageFix" result="shape"/>
<feGaussianBlur stdDeviation="0.5" result="effect1_foregroundBlur_2001_409"/>
</filter>
<filter id="filter10_f_2001_409" x="188.22" y="43.9985" width="247.779" height="160.5" filterUnits="userSpaceOnUse" color-interpolation-filters="sRGB">
<feFlood flood-opacity="0" result="BackgroundImageFix"/>
<feBlend mode="normal" in="SourceGraphic" in2="BackgroundImageFix" result="shape"/>
<feGaussianBlur stdDeviation="0.5" result="effect1_foregroundBlur_2001_409"/>
</filter>
<filter id="filter11_f_2001_409" x="238.224" y="300.966" width="205.214" height="193.604" filterUnits="userSpaceOnUse" color-interpolation-filters="sRGB">
<feFlood flood-opacity="0" result="BackgroundImageFix"/>
<feBlend mode="normal" in="SourceGraphic" in2="BackgroundImageFix" result="shape"/>
<feGaussianBlur stdDeviation="0.5" result="effect1_foregroundBlur_2001_409"/>
</filter>
<filter id="filter12_ng_2001_409" x="-10.2266" y="-21.5903" width="605.953" height="604.32" filterUnits="userSpaceOnUse" color-interpolation-filters="sRGB">
<feFlood flood-opacity="0" result="BackgroundImageFix"/>
<feBlend mode="normal" in="SourceGraphic" in2="BackgroundImageFix" result="shape"/>
<feTurbulence type="fractalNoise" baseFrequency="0.90817457437515259 0.90817457437515259" stitchTiles="stitch" numOctaves="3" result="noise" seed="6158" />
<feColorMatrix in="noise" type="luminanceToAlpha" result="alphaNoise" />
<feComponentTransfer in="alphaNoise" result="coloredNoise1">
<feFuncA type="discrete" tableValues="1 1 1 1 1 1 1 1 1 1 1 1 1 1 1 1 1 1 1 1 1 1 1 1 1 1 1 1 1 1 1 1 1 1 1 1 1 1 1 1 1 1 1 1 1 1 1 1 1 1 1 0 0 0 0 0 0 0 0 0 0 0 0 0 0 0 0 0 0 0 0 0 0 0 0 0 0 0 0 0 0 0 0 0 0 0 0 0 0 0 0 0 0 0 0 0 0 0 0 0 "/>
</feComponentTransfer>
<feComposite operator="in" in2="shape" in="coloredNoise1" result="noise1Clipped" />
<feFlood flood-color="rgba(255, 255, 255, 0.25)" result="color1Flood" />
<feComposite operator="in" in2="noise1Clipped" in="color1Flood" result="color1" />
<feMerge result="effect1_noise_2001_409">
<feMergeNode in="shape" />
<feMergeNode in="color1" />
</feMerge>
<feTurbulence type="fractalNoise" baseFrequency="0.90817457437515259 0.90817457437515259" numOctaves="3" seed="8341" />
<feDisplacementMap in="effect1_noise_2001_409" scale="200" xChannelSelector="R" yChannelSelector="G" result="displacedImage" width="100%" height="100%" />
<feMerge result="effect2_texture_2001_409">
<feMergeNode in="displacedImage"/>
</feMerge>
</filter>
<filter id="filter13_d_2001_409" x="59.7839" y="46.7295" width="458.258" height="455.028" filterUnits="userSpaceOnUse" color-interpolation-filters="sRGB">
<feFlood flood-opacity="0" result="BackgroundImageFix"/>
<feColorMatrix in="SourceAlpha" type="matrix" values="0 0 0 0 0 0 0 0 0 0 0 0 0 0 0 0 0 0 127 0" result="hardAlpha"/>
<feOffset dy="8.80888"/>
<feGaussianBlur stdDeviation="4.40444"/>
<feComposite in2="hardAlpha" operator="out"/>
<feColorMatrix type="matrix" values="0 0 0 0 0 0 0 0 0 0 0 0 0 0 0 0 0 0 0.05 0"/>
<feBlend mode="normal" in2="BackgroundImageFix" result="effect1_dropShadow_2001_409"/>
<feBlend mode="normal" in="SourceGraphic" in2="effect1_dropShadow_2001_409" result="shape"/>
</filter>
<filter id="filter14_d_2001_409" x="189.37" y="46.7295" width="169.198" height="296.443" filterUnits="userSpaceOnUse" color-interpolation-filters="sRGB">
<feFlood flood-opacity="0" result="BackgroundImageFix"/>
<feColorMatrix in="SourceAlpha" type="matrix" values="0 0 0 0 0 0 0 0 0 0 0 0 0 0 0 0 0 0 127 0" result="hardAlpha"/>
<feOffset dy="4"/>
<feGaussianBlur stdDeviation="2"/>
<feComposite in2="hardAlpha" operator="out"/>
<feColorMatrix type="matrix" values="0 0 0 0 0 0 0 0 0 0 0 0 0 0 0 0 0 0 0.25 0"/>
<feBlend mode="normal" in2="BackgroundImageFix" result="effect1_dropShadow_2001_409"/>
<feBlend mode="normal" in="SourceGraphic" in2="effect1_dropShadow_2001_409" result="shape"/>
</filter>
<filter id="filter15_d_2001_409" x="205.442" y="151.014" width="307.791" height="195.275" filterUnits="userSpaceOnUse" color-interpolation-filters="sRGB">
<feFlood flood-opacity="0" result="BackgroundImageFix"/>
<feColorMatrix in="SourceAlpha" type="matrix" values="0 0 0 0 0 0 0 0 0 0 0 0 0 0 0 0 0 0 127 0" result="hardAlpha"/>
<feOffset dy="4"/>
<feGaussianBlur stdDeviation="2"/>
<feComposite in2="hardAlpha" operator="out"/>
<feColorMatrix type="matrix" values="0 0 0 0 0 0 0 0 0 0 0 0 0 0 0 0 0 0 0.25 0"/>
<feBlend mode="normal" in2="BackgroundImageFix" result="effect1_dropShadow_2001_409"/>
<feBlend mode="normal" in="SourceGraphic" in2="effect1_dropShadow_2001_409" result="shape"/>
</filter>
<filter id="filter16_d_2001_409" x="233.686" y="199.354" width="205.972" height="292.786" filterUnits="userSpaceOnUse" color-interpolation-filters="sRGB">
<feFlood flood-opacity="0" result="BackgroundImageFix"/>
<feColorMatrix in="SourceAlpha" type="matrix" values="0 0 0 0 0 0 0 0 0 0 0 0 0 0 0 0 0 0 127 0" result="hardAlpha"/>
<feOffset dy="4"/>
<feGaussianBlur stdDeviation="2"/>
<feComposite in2="hardAlpha" operator="out"/>
<feColorMatrix type="matrix" values="0 0 0 0 0 0 0 0 0 0 0 0 0 0 0 0 0 0 0.25 0"/>
<feBlend mode="normal" in2="BackgroundImageFix" result="effect1_dropShadow_2001_409"/>
<feBlend mode="normal" in="SourceGraphic" in2="effect1_dropShadow_2001_409" result="shape"/>
</filter>
<filter id="filter17_d_2001_409" x="110.921" y="256.218" width="252.873" height="202.201" filterUnits="userSpaceOnUse" color-interpolation-filters="sRGB">
<feFlood flood-opacity="0" result="BackgroundImageFix"/>
<feColorMatrix in="SourceAlpha" type="matrix" values="0 0 0 0 0 0 0 0 0 0 0 0 0 0 0 0 0 0 127 0" result="hardAlpha"/>
<feOffset dy="4"/>
<feGaussianBlur stdDeviation="2"/>
<feComposite in2="hardAlpha" operator="out"/>
<feColorMatrix type="matrix" values="0 0 0 0 0 0 0 0 0 0 0 0 0 0 0 0 0 0 0.25 0"/>
<feBlend mode="normal" in2="BackgroundImageFix" result="effect1_dropShadow_2001_409"/>
<feBlend mode="normal" in="SourceGraphic" in2="effect1_dropShadow_2001_409" result="shape"/>
</filter>
<filter id="filter18_d_2001_409" x="64.5928" y="168.578" width="259.787" height="191.891" filterUnits="userSpaceOnUse" color-interpolation-filters="sRGB">
<feFlood flood-opacity="0" result="BackgroundImageFix"/>
<feColorMatrix in="SourceAlpha" type="matrix" values="0 0 0 0 0 0 0 0 0 0 0 0 0 0 0 0 0 0 127 0" result="hardAlpha"/>
<feOffset dy="4"/>
<feGaussianBlur stdDeviation="2"/>
<feComposite in2="hardAlpha" operator="out"/>
<feColorMatrix type="matrix" values="0 0 0 0 0 0 0 0 0 0 0 0 0 0 0 0 0 0 0.25 0"/>
<feBlend mode="normal" in2="BackgroundImageFix" result="effect1_dropShadow_2001_409"/>
<feBlend mode="normal" in="SourceGraphic" in2="effect1_dropShadow_2001_409" result="shape"/>
</filter>
<filter id="filter19_d_2001_409" x="204.816" y="200.9" width="152.368" height="145.704" filterUnits="userSpaceOnUse" color-interpolation-filters="sRGB">
<feFlood flood-opacity="0" result="BackgroundImageFix"/>
<feColorMatrix in="SourceAlpha" type="matrix" values="0 0 0 0 0 0 0 0 0 0 0 0 0 0 0 0 0 0 127 0" result="hardAlpha"/>
<feOffset/>
<feGaussianBlur stdDeviation="4.05"/>
<feComposite in2="hardAlpha" operator="out"/>
<feColorMatrix type="matrix" values="0 0 0 0 0.998077 0 0 0 0 0.998077 0 0 0 0 0.998077 0 0 0 0.25 0"/>
<feBlend mode="normal" in2="BackgroundImageFix" result="effect1_dropShadow_2001_409"/>
<feBlend mode="normal" in="SourceGraphic" in2="effect1_dropShadow_2001_409" result="shape"/>
</filter>
<linearGradient id="paint0_linear_2001_409" x1="218.658" y1="86.9042" x2="320.098" y2="295.139" gradientUnits="userSpaceOnUse">
<stop stop-color="#8E1010"/>
<stop offset="1" stop-color="#C91111"/>
</linearGradient>
<linearGradient id="paint1_linear_2001_409" x1="268.373" y1="281.211" x2="483.437" y2="186.032" gradientUnits="userSpaceOnUse">
<stop stop-color="#FFE343"/>
<stop offset="1" stop-color="#FAD500"/>
</linearGradient>
<linearGradient id="paint2_linear_2001_409" x1="270.535" y1="291.372" x2="496.481" y2="475.5" gradientUnits="userSpaceOnUse">
<stop stop-color="#6CCB59"/>
<stop offset="1" stop-color="#56B444"/>
</linearGradient>
<linearGradient id="paint3_linear_2001_409" x1="267.998" y1="269.358" x2="179.731" y2="505.569" gradientUnits="userSpaceOnUse">
<stop stop-color="#5E82CF"/>
<stop offset="1" stop-color="#35518D"/>
</linearGradient>
<linearGradient id="paint4_linear_2001_409" x1="197.444" y1="250.724" x2="90.5761" y2="248.172" gradientUnits="userSpaceOnUse">
<stop stop-color="#894DB7"/>
<stop offset="1" stop-color="#5D2E81"/>
</linearGradient>
<linearGradient id="paint5_linear_2001_409" x1="336.444" y1="150.831" x2="205.944" y2="195.831" gradientUnits="userSpaceOnUse">
<stop stop-color="#8E7310"/>
<stop offset="1" stop-color="#8E1010"/>
</linearGradient>
<linearGradient id="paint6_linear_2001_409" x1="327.944" y1="189.831" x2="397.944" y2="296.831" gradientUnits="userSpaceOnUse">
<stop stop-color="#DBC12D"/>
<stop offset="0.383285" stop-color="#A8BC2E"/>
<stop offset="0.687439" stop-color="#79AA44"/>
<stop offset="1" stop-color="#6BAC2F"/>
</linearGradient>
<linearGradient id="paint7_linear_2001_409" x1="396.5" y1="299.998" x2="338.5" y2="408.998" gradientUnits="userSpaceOnUse">
<stop stop-color="#56B444"/>
<stop offset="1" stop-color="#72E15C"/>
</linearGradient>
<linearGradient id="paint8_linear_2001_409" x1="179.944" y1="271.331" x2="266.944" y2="448.831" gradientUnits="userSpaceOnUse">
<stop stop-color="#725ECF"/>
<stop offset="1" stop-color="#35518D"/>
</linearGradient>
<linearGradient id="paint9_linear_2001_409" x1="268.444" y1="-3.16921" x2="181.444" y2="330.331" gradientUnits="userSpaceOnUse">
<stop stop-color="#5E1616"/>
<stop offset="1" stop-color="#5D2E81"/>
</linearGradient>
<linearGradient id="paint10_linear_2001_409" x1="218.658" y1="86.9042" x2="320.098" y2="295.139" gradientUnits="userSpaceOnUse">
<stop stop-color="#8E1010"/>
<stop offset="1" stop-color="#C91111"/>
</linearGradient>
<linearGradient id="paint11_linear_2001_409" x1="268.373" y1="281.212" x2="483.437" y2="186.032" gradientUnits="userSpaceOnUse">
<stop stop-color="#FFE343"/>
<stop offset="1" stop-color="#FAD500"/>
</linearGradient>
<linearGradient id="paint12_linear_2001_409" x1="270.535" y1="291.372" x2="496.481" y2="475.5" gradientUnits="userSpaceOnUse">
<stop stop-color="#6CCB59"/>
<stop offset="1" stop-color="#56B444"/>
</linearGradient>
<linearGradient id="paint13_linear_2001_409" x1="267.998" y1="269.359" x2="179.731" y2="505.57" gradientUnits="userSpaceOnUse">
<stop stop-color="#5E82CF"/>
<stop offset="1" stop-color="#35518D"/>
</linearGradient>
<linearGradient id="paint14_linear_2001_409" x1="197.444" y1="250.724" x2="90.5761" y2="248.173" gradientUnits="userSpaceOnUse">
<stop stop-color="#894DB7"/>
<stop offset="1" stop-color="#5D2E81"/>
</linearGradient>
<linearGradient id="paint15_linear_2001_409" x1="382.074" y1="147.407" x2="382.423" y2="175.675" gradientUnits="userSpaceOnUse">
<stop stop-color="#F6DC47"/>
<stop offset="1" stop-color="#FFDD1C" stop-opacity="0.5"/>
</linearGradient>
<linearGradient id="paint16_linear_2001_409" x1="384.415" y1="197.096" x2="384.796" y2="166.177" gradientUnits="userSpaceOnUse">
<stop stop-color="#F6DC47"/>
<stop offset="1" stop-color="#FFDD1C" stop-opacity="0.5"/>
</linearGradient>
<linearGradient id="paint17_linear_2001_409" x1="386.459" y1="206.634" x2="349.631" y2="237.007" gradientUnits="userSpaceOnUse">
<stop stop-color="#F6DC47"/>
<stop offset="1" stop-color="#FFDD1C" stop-opacity="0.5"/>
</linearGradient>
<linearGradient id="paint18_linear_2001_409" x1="326.992" y1="257.505" x2="362.77" y2="225.901" gradientUnits="userSpaceOnUse">
<stop stop-color="#F6DC47"/>
<stop offset="1" stop-color="#FFDD1C" stop-opacity="0.5"/>
</linearGradient>
<linearGradient id="paint19_linear_2001_409" x1="326.991" y1="257.505" x2="362.769" y2="225.901" gradientUnits="userSpaceOnUse">
<stop stop-color="#F6DC47"/>
<stop offset="1" stop-color="#FFDD1C" stop-opacity="0.5"/>
</linearGradient>
<linearGradient id="paint20_linear_2001_409" x1="432.155" y1="210.65" x2="441.949" y2="178.249" gradientUnits="userSpaceOnUse">
<stop stop-color="#F6DC47"/>
<stop offset="1" stop-color="#FFDD1C" stop-opacity="0.5"/>
</linearGradient>
<linearGradient id="paint21_linear_2001_409" x1="422.855" y1="272.059" x2="443.348" y2="209.697" gradientUnits="userSpaceOnUse">
<stop stop-color="#F6DC47"/>
<stop offset="1" stop-color="#FFDD1C" stop-opacity="0.5"/>
</linearGradient>
<linearGradient id="paint22_linear_2001_409" x1="456.362" y1="281.16" x2="475.984" y2="217.398" gradientUnits="userSpaceOnUse">
<stop stop-color="#F6DC47"/>
<stop offset="1" stop-color="#FFDD1C" stop-opacity="0.5"/>
</linearGradient>
<linearGradient id="paint23_linear_2001_409" x1="424.503" y1="318.212" x2="425.385" y2="262.564" gradientUnits="userSpaceOnUse">
<stop stop-color="#F6DC47"/>
<stop offset="1" stop-color="#FFDD1C" stop-opacity="0.5"/>
</linearGradient>
<linearGradient id="paint24_linear_2001_409" x1="408.431" y1="264.589" x2="410.968" y2="206.83" gradientUnits="userSpaceOnUse">
<stop stop-color="#F6DC47"/>
<stop offset="1" stop-color="#FFDD1C" stop-opacity="0.5"/>
</linearGradient>
<linearGradient id="paint25_linear_2001_409" x1="349.225" y1="318.114" x2="351.037" y2="260.742" gradientUnits="userSpaceOnUse">
<stop stop-color="#F6DC47"/>
<stop offset="1" stop-color="#FFDD1C" stop-opacity="0.5"/>
</linearGradient>
<linearGradient id="paint26_linear_2001_409" x1="347.742" y1="172.598" x2="348.031" y2="195.345" gradientUnits="userSpaceOnUse">
<stop stop-color="#F6DC47"/>
<stop offset="1" stop-color="#FFDD1C" stop-opacity="0.5"/>
</linearGradient>
<linearGradient id="paint27_linear_2001_409" x1="189.467" y1="338.725" x2="180.346" y2="302.781" gradientUnits="userSpaceOnUse">
<stop stop-color="#894DB7"/>
<stop offset="1" stop-color="#894DB7" stop-opacity="0.3"/>
</linearGradient>
<linearGradient id="paint28_linear_2001_409" x1="194.559" y1="224.32" x2="205.52" y2="185.269" gradientUnits="userSpaceOnUse">
<stop stop-color="#894DB7"/>
<stop offset="1" stop-color="#894DB7" stop-opacity="0.3"/>
</linearGradient>
<linearGradient id="paint29_linear_2001_409" x1="180.434" y1="262.691" x2="123.471" y2="236.684" gradientUnits="userSpaceOnUse">
<stop stop-color="#894DB7"/>
<stop offset="1" stop-color="#894DB7" stop-opacity="0.3"/>
</linearGradient>
<linearGradient id="paint30_linear_2001_409" x1="86.5406" y1="217.74" x2="142.575" y2="245.691" gradientUnits="userSpaceOnUse">
<stop stop-color="#894DB7"/>
<stop offset="1" stop-color="#894DB7" stop-opacity="0.3"/>
</linearGradient>
<linearGradient id="paint31_linear_2001_409" x1="37.0337" y1="234.699" x2="106.311" y2="271.301" gradientUnits="userSpaceOnUse">
<stop stop-color="#894DB7"/>
<stop offset="1" stop-color="#894DB7" stop-opacity="0.3"/>
</linearGradient>
<linearGradient id="paint32_linear_2001_409" x1="266.643" y1="242.963" x2="243.251" y2="280.702" gradientUnits="userSpaceOnUse">
<stop stop-color="#894DB7"/>
<stop offset="1" stop-color="#894DB7" stop-opacity="0.3"/>
</linearGradient>
<linearGradient id="paint33_linear_2001_409" x1="182.68" y1="182.951" x2="205.513" y2="255.267" gradientUnits="userSpaceOnUse">
<stop stop-color="#894DB7"/>
<stop offset="1" stop-color="#894DB7" stop-opacity="0.3"/>
</linearGradient>
<linearGradient id="paint34_linear_2001_409" x1="85.9908" y1="141.732" x2="101.569" y2="195.727" gradientUnits="userSpaceOnUse">
<stop stop-color="#894DB7"/>
<stop offset="1" stop-color="#894DB7" stop-opacity="0.3"/>
</linearGradient>
<linearGradient id="paint35_linear_2001_409" x1="95.7597" y1="182.439" x2="105.3" y2="216.473" gradientUnits="userSpaceOnUse">
<stop stop-color="#894DB7"/>
<stop offset="1" stop-color="#894DB7" stop-opacity="0.3"/>
</linearGradient>
<linearGradient id="paint36_linear_2001_409" x1="140.816" y1="317.198" x2="133.815" y2="289.59" gradientUnits="userSpaceOnUse">
<stop stop-color="#894DB7"/>
<stop offset="1" stop-color="#894DB7" stop-opacity="0.3"/>
</linearGradient>
<linearGradient id="paint37_linear_2001_409" x1="193.325" y1="399.332" x2="177.117" y2="456.169" gradientUnits="userSpaceOnUse">
<stop stop-color="#8AAAEF"/>
<stop offset="1" stop-color="#9D4AB7"/>
</linearGradient>
<linearGradient id="paint38_linear_2001_409" x1="257.864" y1="422.906" x2="230.286" y2="377.665" gradientUnits="userSpaceOnUse">
<stop stop-color="#8AAAEF"/>
<stop offset="1" stop-color="#9D4AB7"/>
</linearGradient>
<linearGradient id="paint39_linear_2001_409" x1="274.38" y1="372.105" x2="219.523" y2="346.497" gradientUnits="userSpaceOnUse">
<stop stop-color="#8AAAEF"/>
<stop offset="1" stop-color="#9D4AB7"/>
</linearGradient>
<linearGradient id="paint40_linear_2001_409" x1="166.694" y1="367.355" x2="143.674" y2="341.812" gradientUnits="userSpaceOnUse">
<stop stop-color="#8AAAEF"/>
<stop offset="1" stop-color="#9D4AB7"/>
</linearGradient>
<linearGradient id="paint41_linear_2001_409" x1="264.964" y1="357.633" x2="255.144" y2="311.898" gradientUnits="userSpaceOnUse">
<stop stop-color="#8AAAEF"/>
<stop offset="1" stop-color="#9D4AB7"/>
</linearGradient>
<linearGradient id="paint42_linear_2001_409" x1="226.792" y1="277.374" x2="202.584" y2="328.548" gradientUnits="userSpaceOnUse">
<stop stop-color="#8AAAEF"/>
<stop offset="1" stop-color="#9D4AB7"/>
</linearGradient>
<linearGradient id="paint43_linear_2001_409" x1="241.997" y1="96.4548" x2="247.915" y2="139.586" gradientUnits="userSpaceOnUse">
<stop stop-color="#C91111"/>
<stop offset="1" stop-color="#C95111" stop-opacity="0.5"/>
</linearGradient>
<linearGradient id="paint44_linear_2001_409" x1="319.626" y1="152.857" x2="325.388" y2="186.616" gradientUnits="userSpaceOnUse">
<stop stop-color="#C91111"/>
<stop offset="1" stop-color="#C95111" stop-opacity="0.5"/>
</linearGradient>
<linearGradient id="paint45_linear_2001_409" x1="227.632" y1="139.839" x2="189.727" y2="137.668" gradientUnits="userSpaceOnUse">
<stop stop-color="#C91111"/>
<stop offset="1" stop-color="#C95111" stop-opacity="0.5"/>
</linearGradient>
<linearGradient id="paint46_linear_2001_409" x1="237.277" y1="151.32" x2="203.393" y2="169.736" gradientUnits="userSpaceOnUse">
<stop stop-color="#C91111"/>
<stop offset="1" stop-color="#C95111" stop-opacity="0.5"/>
</linearGradient>
<linearGradient id="paint47_linear_2001_409" x1="309.735" y1="189.395" x2="275.852" y2="207.81" gradientUnits="userSpaceOnUse">
<stop stop-color="#C91111"/>
<stop offset="1" stop-color="#C95111" stop-opacity="0.5"/>
</linearGradient>
<linearGradient id="paint48_linear_2001_409" x1="276.813" y1="143.998" x2="258.344" y2="147.463" gradientUnits="userSpaceOnUse">
<stop stop-color="#C91111"/>
<stop offset="1" stop-color="#C95111" stop-opacity="0.5"/>
</linearGradient>
<linearGradient id="paint49_linear_2001_409" x1="270.931" y1="201.068" x2="232.63" y2="197.642" gradientUnits="userSpaceOnUse">
<stop stop-color="#C91111"/>
<stop offset="1" stop-color="#C95111" stop-opacity="0.5"/>
</linearGradient>
<linearGradient id="paint50_linear_2001_409" x1="249.067" y1="168.01" x2="218.026" y2="152.451" gradientUnits="userSpaceOnUse">
<stop stop-color="#C91111"/>
<stop offset="1" stop-color="#C95111" stop-opacity="0.5"/>
</linearGradient>
<linearGradient id="paint51_linear_2001_409" x1="255.2" y1="164.409" x2="259.964" y2="194.697" gradientUnits="userSpaceOnUse">
<stop stop-color="#C91111"/>
<stop offset="1" stop-color="#C95111" stop-opacity="0.5"/>
</linearGradient>
<linearGradient id="paint52_linear_2001_409" x1="263.882" y1="86.9112" x2="303.459" y2="106.304" gradientUnits="userSpaceOnUse">
<stop stop-color="#C91111"/>
<stop offset="1" stop-color="#C95111" stop-opacity="0.5"/>
</linearGradient>
<linearGradient id="paint53_linear_2001_409" x1="302.24" y1="74.0665" x2="326.677" y2="145.574" gradientUnits="userSpaceOnUse">
<stop stop-color="#C91111"/>
<stop offset="1" stop-color="#C95111" stop-opacity="0.5"/>
</linearGradient>
<linearGradient id="paint54_linear_2001_409" x1="295.56" y1="118.603" x2="298.796" y2="160.621" gradientUnits="userSpaceOnUse">
<stop stop-color="#C91111"/>
<stop offset="1" stop-color="#C95111" stop-opacity="0.5"/>
</linearGradient>
<linearGradient id="paint55_linear_2001_409" x1="418.39" y1="409.598" x2="396.63" y2="402.123" gradientUnits="userSpaceOnUse">
<stop stop-color="#6CCB59"/>
<stop offset="1" stop-color="#6CCB59" stop-opacity="0.5"/>
</linearGradient>
<linearGradient id="paint56_linear_2001_409" x1="322.186" y1="407.002" x2="305.366" y2="401.274" gradientUnits="userSpaceOnUse">
<stop stop-color="#6CCB59"/>
<stop offset="1" stop-color="#6CCB59" stop-opacity="0.5"/>
</linearGradient>
<linearGradient id="paint57_linear_2001_409" x1="402.247" y1="364.112" x2="423.831" y2="365.047" gradientUnits="userSpaceOnUse">
<stop stop-color="#6CCB59"/>
<stop offset="1" stop-color="#6CCB59" stop-opacity="0.5"/>
</linearGradient>
<linearGradient id="paint58_linear_2001_409" x1="389.703" y1="361.108" x2="408.347" y2="350.172" gradientUnits="userSpaceOnUse">
<stop stop-color="#6CCB59"/>
<stop offset="1" stop-color="#6CCB59" stop-opacity="0.5"/>
</linearGradient>
<linearGradient id="paint59_linear_2001_409" x1="292.049" y1="385.882" x2="316.297" y2="369.101" gradientUnits="userSpaceOnUse">
<stop stop-color="#6CCB59"/>
<stop offset="1" stop-color="#6CCB59" stop-opacity="0.5"/>
</linearGradient>
<linearGradient id="paint60_linear_2001_409" x1="359.872" y1="386.537" x2="377.94" y2="389.701" gradientUnits="userSpaceOnUse">
<stop stop-color="#6CCB59"/>
<stop offset="1" stop-color="#6CCB59" stop-opacity="0.5"/>
</linearGradient>
<linearGradient id="paint61_linear_2001_409" x1="330.98" y1="337.609" x2="355.806" y2="343.339" gradientUnits="userSpaceOnUse">
<stop stop-color="#6CCB59"/>
<stop offset="1" stop-color="#6CCB59" stop-opacity="0.5"/>
</linearGradient>
<linearGradient id="paint62_linear_2001_409" x1="368.143" y1="353.711" x2="385.016" y2="358.273" gradientUnits="userSpaceOnUse">
<stop stop-color="#6CCB59"/>
<stop offset="1" stop-color="#6CCB59" stop-opacity="0.5"/>
</linearGradient>
<linearGradient id="paint63_linear_2001_409" x1="368.371" y1="360.202" x2="353.209" y2="355.022" gradientUnits="userSpaceOnUse">
<stop stop-color="#6CCB59"/>
<stop offset="1" stop-color="#6CCB59" stop-opacity="0.5"/>
</linearGradient>
<linearGradient id="paint64_linear_2001_409" x1="408.784" y1="424.019" x2="390.667" y2="451.884" gradientUnits="userSpaceOnUse">
<stop stop-color="#6CCB59"/>
<stop offset="1" stop-color="#6CCB59" stop-opacity="0.5"/>
</linearGradient>
<linearGradient id="paint65_linear_2001_409" x1="389.378" y1="457.806" x2="313.98" y2="486.832" gradientUnits="userSpaceOnUse">
<stop stop-color="#6CCB59"/>
<stop offset="1" stop-color="#6CCB59" stop-opacity="0.5"/>
</linearGradient>
<linearGradient id="paint66_linear_2001_409" x1="361.941" y1="421.638" x2="340.119" y2="414.013" gradientUnits="userSpaceOnUse">
<stop stop-color="#6CCB59"/>
<stop offset="1" stop-color="#6CCB59" stop-opacity="0.5"/>
</linearGradient>
<linearGradient id="paint67_linear_2001_409" x1="241.5" y1="84.9988" x2="256.5" y2="194.499" gradientUnits="userSpaceOnUse">
<stop stop-color="white"/>
<stop offset="0.5" stop-color="white" stop-opacity="0.5"/>
<stop offset="1" stop-color="white" stop-opacity="0"/>
</linearGradient>
<linearGradient id="paint68_linear_2001_409" x1="451.335" y1="181.422" x2="294.5" y2="282.999" gradientUnits="userSpaceOnUse">
<stop stop-color="white"/>
<stop offset="0.5" stop-color="white" stop-opacity="0.5"/>
<stop offset="1" stop-color="white" stop-opacity="0"/>
</linearGradient>
<linearGradient id="paint69_linear_2001_409" x1="424.472" y1="410.784" x2="293.5" y2="282.999" gradientUnits="userSpaceOnUse">
<stop stop-color="white"/>
<stop offset="0.5" stop-color="white" stop-opacity="0.5"/>
<stop offset="1" stop-color="white" stop-opacity="0"/>
</linearGradient>
<linearGradient id="paint70_linear_2001_409" x1="198.036" y1="456.114" x2="242.817" y2="316.218" gradientUnits="userSpaceOnUse">
<stop stop-color="white"/>
<stop offset="0.5" stop-color="white" stop-opacity="0.5"/>
<stop offset="1" stop-color="white" stop-opacity="0"/>
</linearGradient>
<linearGradient id="paint71_linear_2001_409" x1="84.953" y1="254.766" x2="231.84" y2="254.126" gradientUnits="userSpaceOnUse">
<stop stop-color="white"/>
<stop offset="0.5" stop-color="white" stop-opacity="0.5"/>
<stop offset="1" stop-color="white" stop-opacity="0"/>
</linearGradient>
</defs>
</svg>
